<svg xmlns="http://www.w3.org/2000/svg" width="25" height="25" viewBox="0 0 25 25"><defs><style>.a{fill:#fff;}.b{fill:#636680;}</style></defs><g transform="translate(0.387)"><circle class="a" cx="12.5" cy="12.5" r="12.5" transform="translate(-0.387)"/><path class="b" d="M3.069,5.371,2.81,4.395h3.3a.487.487,0,0,0,0-.974H2.555L1.846.719A.936.936,0,0,0,.7.034a.98.98,0,0,0-.662,1.2L1.442,6.6a.948.948,0,0,0,.907.719H4.229V8.787a.908.908,0,0,0-.662.284,1,1,0,0,0-.278.692H6.108a.956.956,0,0,0-.94-.976V7.324H7.048a.977.977,0,0,0,0-1.953Z" transform="translate(7.994 7.465)"/></g></svg>