<svg xmlns="http://www.w3.org/2000/svg" width="25" height="25" viewBox="0 0 25 25"><defs><style>.a{fill:#fff;}.b{fill:#636680;}</style></defs><g transform="translate(0.387)"><circle class="a" cx="12.5" cy="12.5" r="12.5" transform="translate(-0.387)"/><path class="b" d="M5.15,13h-3.8A1.375,1.375,0,0,1,0,11.616V5.354A1.376,1.376,0,0,1,1.351,3.971h.38V.519A.514.514,0,0,1,2.237,0H4.262a.506.506,0,0,1,.358.156.523.523,0,0,1,.144.371V3.978H5.15A1.374,1.374,0,0,1,6.5,5.361v6.255A1.373,1.373,0,0,1,5.15,13ZM1.256,10.376a.173.173,0,0,0,0,.346h4.02a.173.173,0,0,0,0-.346Zm0-2.075a.173.173,0,0,0,0,.346h4.02a.171.171,0,0,0,.147-.086.179.179,0,0,0,0-.173A.171.171,0,0,0,5.276,8.3Zm0-2.075a.173.173,0,0,0,0,.346h4.02a.173.173,0,0,0,0-.346Zm.813-5.4V3.8H4.432V.821Z" transform="translate(8.613 6)"/></g></svg>