<svg xmlns="http://www.w3.org/2000/svg" width="25" height="25" viewBox="0 0 25 25"><defs><style>.a{fill:#fff;}.b{fill:#636680;}</style></defs><g transform="translate(0.387)"><circle class="a" cx="12.5" cy="12.5" r="12.5" transform="translate(-0.387)"/><g transform="translate(7.398 8)"><g transform="translate(-1 -1)"><path class="b" d="M61.858,1.621a1.666,1.666,0,0,0-3.332,0,4.452,4.452,0,0,0-2.78,4.121v5a1.113,1.113,0,0,0,1.111,1.111h6.668a1.113,1.113,0,0,0,1.111-1.111v-5A4.452,4.452,0,0,0,61.858,1.621ZM60.193.741a.928.928,0,0,1,.882.644,4.465,4.465,0,0,0-1.764,0A.928.928,0,0,1,60.193.741Zm2.964,8.706a1.113,1.113,0,0,1-1.111,1.111h-3.7a1.113,1.113,0,0,1-1.111-1.111V8.15A1.113,1.113,0,0,1,58.34,7.039h3.7A1.113,1.113,0,0,1,63.156,8.15Zm-.185-3.334a.37.37,0,0,1-.37-.37,2.408,2.408,0,0,0-4.816,0,.37.37,0,1,1-.741,0,3.149,3.149,0,1,1,6.3,0A.37.37,0,0,1,62.971,6.112Z" transform="translate(-54.532)"/><path class="b" d="M143.443,292.672h-3.7a.371.371,0,0,0-.37.37v1.3a.371.371,0,0,0,.37.37h3.7a.371.371,0,0,0,.37-.37v-1.3A.371.371,0,0,0,143.443,292.672Z" transform="translate(-135.93 -284.893)"/></g></g></g></svg>