<svg xmlns="http://www.w3.org/2000/svg" xmlns:xlink="http://www.w3.org/1999/xlink" width="10" height="12.308" viewBox="0 0 10 12.308"><defs><style>.a{fill:lime;}.b{clip-path:url(#a);}.c{fill:#fdbe15;}</style><clipPath id="a"><path class="a" d="M8.813,3.632a4.837,4.837,0,0,1-.379.492,4.9,4.9,0,0,1-1.392,1.1A4.739,4.739,0,0,0,7.17,4.131a4.681,4.681,0,0,0-.106-.994A4.831,4.831,0,0,0,4.853.027a.185.185,0,0,0-.28.151,3.6,3.6,0,0,1-.8,1.538A20.918,20.918,0,0,1,1.887,3.667,4.69,4.69,0,0,0,.01,7.777a4.919,4.919,0,0,0,6.028,4.4l0,0a4.839,4.839,0,0,0,1.8-.829,4.718,4.718,0,0,0,.9-.866c.032-.039.062-.076.092-.115a5.411,5.411,0,0,0-.023-6.734"/></clipPath></defs><g transform="translate(0)"><path class="a" d="M8.813,3.632a4.837,4.837,0,0,1-.379.492,4.9,4.9,0,0,1-1.392,1.1A4.739,4.739,0,0,0,7.17,4.131a4.681,4.681,0,0,0-.106-.994A4.831,4.831,0,0,0,4.853.027a.185.185,0,0,0-.28.151,3.6,3.6,0,0,1-.8,1.538A20.918,20.918,0,0,1,1.887,3.667,4.69,4.69,0,0,0,.01,7.777a4.919,4.919,0,0,0,6.028,4.4l0,0a4.839,4.839,0,0,0,1.8-.829,4.718,4.718,0,0,0,.9-.866c.032-.039.062-.076.092-.115a5.411,5.411,0,0,0-.023-6.734"/><g class="b"><g transform="translate(-1.667 -0.833)"><rect class="c" width="13.333" height="13.833"/></g></g></g></svg>