<svg xmlns="http://www.w3.org/2000/svg" width="25" height="25" viewBox="0 0 25 25"><defs><style>.a{fill:#fff;}.b{fill:#636680;}</style></defs><g transform="translate(0.387 -2)"><path class="a" d="M12.5,0A12.5,12.5,0,1,1,0,12.5,12.5,12.5,0,0,1,12.5,0Z" transform="translate(-0.387 2)"/><g transform="translate(-16.65 -19.383)"><path class="b" d="M44.45,30.244H41.2V28.231a.641.641,0,0,1,.686-.629h2.18a.627.627,0,0,1,.686.629l.02,1.611a.613.613,0,0,1-.081.277.293.293,0,0,1-.241.126Zm-2.644-.755h2.341v-.957a.15.15,0,0,0-.121-.151H41.907a.15.15,0,0,0-.121.151l.02.956Z" transform="translate(-13.728 1)"/><g transform="translate(24 30.384)"><path class="b" d="M25.794,35.1h-.987A.786.786,0,0,0,24,35.86v5.924a.755.755,0,0,0,.238.553.768.768,0,0,0,.57.207h.987Z" transform="translate(-24 -35.1)"/><rect class="b" width="4.605" height="7.444" transform="translate(2.946 0)"/><path class="b" d="M68.089,35.1H67.1v7.444h.989a.786.786,0,0,0,.805-.76V35.86A.786.786,0,0,0,68.089,35.1Z" transform="translate(-58.4 -35.1)"/></g></g></g></svg>